<svg width="24" height="24" viewBox="0 0 24 24" fill="none" xmlns="http://www.w3.org/2000/svg">
<path d="M24 12C24 18.6274 18.6274 24 12 24C5.37258 24 0 18.6274 0 12C0 5.37258 5.37258 0 12 0C18.6274 0 24 5.37258 24 12Z" fill="#F7931A"/>
<path d="M14.54 10.2883C14.1614 11.7717 11.8739 11.004 11.1322 10.8146L11.8023 8.18974C12.544 8.37909 14.9351 8.73939 14.54 10.2883ZM14.1083 14.5261C13.6929 16.1578 10.947 15.2587 10.0547 15.0314L10.8026 12.1424C11.6915 12.3707 14.5521 12.8271 14.1168 14.5308L14.1083 14.5261ZM17.1485 10.331C17.3977 8.73563 16.1865 7.87315 14.5282 7.28858L15.0796 5.12913L13.7638 4.79225L13.2264 6.89579C12.8824 6.80751 12.5274 6.72425 12.1745 6.64215L12.7027 4.52526L11.3914 4.18529L10.8411 6.34261C10.5539 6.27697 10.2731 6.2094 10.0011 6.14106L8.18877 5.67678L7.83031 7.08276C7.83031 7.08276 8.80924 7.31317 8.78273 7.32632C9.16191 7.37344 9.43343 7.71569 9.39304 8.09562L8.77463 10.5499C8.82092 10.5616 8.86641 10.5763 8.91083 10.5938L8.77212 10.5596L7.88507 14.0021C7.80092 14.2549 7.52859 14.3924 7.27523 14.31C7.29438 14.3205 6.32068 14.0653 6.32068 14.0653L5.65828 15.5677L7.36965 16.0045L8.31142 16.2423L7.75593 18.4244L9.06954 18.7601L9.61091 16.6089C9.95778 16.7071 10.3081 16.7989 10.6575 16.8873L10.1075 19.0392L11.4211 19.375L11.9808 17.1952C14.2269 17.6338 15.9121 17.4709 16.6333 15.4455C17.2126 13.8121 16.6226 12.8689 15.4483 12.2475C16.3101 12.0549 16.9636 11.4948 17.14 10.3264L17.1485 10.331Z" fill="white"/>
</svg>
